<svg width="40" height="40" viewBox="0 0 40 40" fill="none" xmlns="http://www.w3.org/2000/svg">
<path d="M8 28.85C8 29.65 8.65 30.35 9.5 30.35C10.3 30.35 11 29.7 11 28.85V14.25L29.35 29.5C29.9 29.95 30.25 30.3 31 30.3H31.1C31.95 30.3 32.6 29.65 32.6 28.8V11.4C32.6 10.6 31.95 9.9 31.1 9.9C30.3 9.9 29.6 10.55 29.6 11.4V25.8L11.5 10.75C11 10.3 10.6 9.9 9.85 9.9H9.55C8.65 9.9 8 10.6 8 11.45V28.85ZM16.7 20.65C15.85 20.65 15.2 21.3 15.2 22.15V31.1C15.2 31.9 15.85 32.6 16.7 32.6C17.5 32.6 18.2 31.95 18.2 31.1V22.1C18.2 21.3 17.55 20.65 16.7 20.65ZM23.95 26.6C23.1 26.6 22.45 27.25 22.45 28.1V31.1C22.45 31.9 23.1 32.6 23.95 32.6C24.75 32.6 25.45 31.95 25.45 31.1V28.1C25.4 27.25 24.75 26.6 23.95 26.6ZM23.95 8C23.1 8 22.45 8.65 22.45 9.5V17.95C22.45 18.75 23.1 19.45 23.95 19.45C24.75 19.45 25.45 18.8 25.45 17.95V9.5C25.4 8.65 24.75 8 23.95 8ZM16.7 8C15.85 8 15.2 8.65 15.2 9.5V12C15.2 12.8 15.85 13.5 16.7 13.5C17.5 13.5 18.2 12.85 18.2 12V9.5C18.2 8.65 17.55 8 16.7 8Z" fill="#1A1A13"/>
</svg>
