<?xml version="1.0" encoding="utf-8"?>
<!-- Svg Vector Icons : http://www.onlinewebfonts.com/icon -->
<!DOCTYPE svg PUBLIC "-//W3C//DTD SVG 1.1//EN" "http://www.w3.org/Graphics/SVG/1.1/DTD/svg11.dtd">
<svg version="1.1" xmlns="http://www.w3.org/2000/svg" xmlns:xlink="http://www.w3.org/1999/xlink" x="0px" y="0px" viewBox="0 0 256 256" enable-background="new 0 0 256 256" xml:space="preserve">
<metadata> Svg Vector Icons : http://www.onlinewebfonts.com/icon </metadata>
<g><g><g><path fill="#000000" d="M118.5,45c-15.3,1.3-28.5,5-43.5,12.3c-21.2,10.4-41.2,27.5-56.9,49c-6.5,8.7-8.1,13.1-8.1,22c0,5.6,0.9,10.3,2.7,13.8c4.9,9.6,23.6,30.6,35.9,40.4c30.5,24.3,65.7,33.5,101.8,26.9c33.1-6.1,63.8-26.8,87.4-59.1c2.5-3.3,5-7.2,5.7-8.7c3.2-7,3.5-17.4,0.6-25.2c-3-8.1-20.8-29-34.6-40.5c-21.9-18.4-46.6-29-72.5-31C129.4,44.4,126,44.4,118.5,45z M136.9,58.6c33.8,3.1,64.4,21.7,88.6,54c6,7.9,7,10.1,7.3,14.5c0.3,5.1-0.7,7.6-5.6,14.6c-17.6,24.7-40.2,42.4-64.5,50.5c-19.4,6.5-40.2,7.4-60.1,2.8c-15.4-3.6-32-12-45.9-23.2c-11.9-9.5-27.7-27.5-32.3-36.9c-1.9-3.8-2-9.1-0.1-13.1c3.9-8.4,21.4-28.2,33.6-37.9C81.3,65,109.4,56.1,136.9,58.6z"/><path fill="#000000" d="M118.8,83.1c-17.1,3.9-31.6,18.3-35.7,35.5c-1.3,5.2-1.2,14.5,0.3,19.8c5.4,20.6,24.1,35.4,44.5,35.4c6.2,0,10.3-0.8,16.2-3c8.8-3.4,18.3-11.5,23.4-20.1c10.8-17.9,7.6-40.1-7.8-55c-6-5.8-11.5-9.1-19.1-11.6c-3.7-1.2-5.3-1.4-11.4-1.6C124.2,82.4,121.1,82.6,118.8,83.1z M136.4,96.8c14.1,3.3,23.7,16,23.7,31.3c0,14.2-8,25.9-20.8,30.4c-4.9,1.8-13.7,2.2-19.2,1c-18.9-4.2-29.1-23.6-22.6-42.9c3.2-9.5,11.2-16.9,21.3-19.5C123.5,95.8,131.8,95.6,136.4,96.8z"/></g></g></g>
</svg>