<svg width="24" height="24" viewBox="0 0 28 28" fill="none" xmlns="http://www.w3.org/2000/svg">
<path d="M10.5002 2.33331H3.87224C3.02328 2.33331 2.3335 3.02271 2.3335 3.87119V24.1288C2.3335 24.9773 3.02328 25.6666 3.87224 25.6666H10.5002M17.8974 2.33331H24.1279C24.9769 2.33331 25.6666 3.02271 25.6666 3.87119V24.1155C25.6799 24.9773 24.9901 25.6666 24.1412 25.6666H17.3207" stroke="#1A1A13" stroke-width="1.86667" stroke-miterlimit="10" stroke-linecap="round" stroke-linejoin="round"/>
<path d="M18.3809 9.82623H11.8096C10.596 9.82623 9.61914 10.803 9.61914 12.0167C9.61914 13.2303 10.596 14.2071 11.8096 14.2071H16.1904C17.404 14.2071 18.3809 15.1839 18.3809 16.3975C18.3809 17.6111 17.404 18.588 16.1904 18.588H9.61914" stroke="#1A1A13" stroke-width="1.86667" stroke-miterlimit="10" stroke-linecap="round" stroke-linejoin="round"/>
<path d="M14 6.2002V9.48584" stroke="#1A1A13" stroke-width="1.86667" stroke-miterlimit="10" stroke-linecap="round" stroke-linejoin="round"/>
<path d="M14 19.1505V21.7997" stroke="#1A1A13" stroke-width="1.86667" stroke-miterlimit="10" stroke-linecap="round" stroke-linejoin="round"/>
</svg>
